<?xml version="1.0" encoding="utf-8"?>
<!-- Generator: Adobe Illustrator 25.1.0, SVG Export Plug-In . SVG Version: 6.00 Build 0)  -->
<svg version="1.1" id="Layer_1" xmlns="http://www.w3.org/2000/svg" xmlns:xlink="http://www.w3.org/1999/xlink" x="0px" y="0px"
	 viewBox="0 0 156 40" style="enable-background:new 0 0 156 40;" xml:space="preserve">
<style type="text/css">
	.st0{fill:#249F9C;}
	.st1{fill:#FFFFFF;}
	.st2{fill:#E94885;}
	.st3{fill:none;stroke:#E72176;stroke-width:3;stroke-miterlimit:10;}
</style>
<path class="st0" d="M31.19,8.87v22.27H8.92V8.87H31.19z M26.73,13.32H13.37v13.36h13.36V13.32z"/>
<g>
	<path class="st1" d="M53.84,26.11H40.5v-2.22h13.34c0.31,0,0.58-0.11,0.79-0.32c0.21-0.21,0.32-0.48,0.32-0.79
		c0-0.31-0.11-0.58-0.32-0.79c-0.21-0.21-0.48-0.32-0.79-0.32h-4.45c-0.93,0-1.71-0.32-2.36-0.97c-0.65-0.65-0.97-1.44-0.97-2.36
		c0-0.93,0.32-1.71,0.97-2.36c0.65-0.65,1.44-0.97,2.36-0.97h6.67v2.22h-6.67c-0.31,0-0.58,0.11-0.79,0.32
		c-0.21,0.21-0.32,0.48-0.32,0.79c0,0.31,0.11,0.58,0.32,0.79c0.21,0.21,0.48,0.32,0.79,0.32h4.45c0.93,0,1.71,0.32,2.36,0.97
		c0.65,0.65,0.97,1.44,0.97,2.36c0,0.93-0.32,1.71-0.97,2.36C55.55,25.79,54.76,26.11,53.84,26.11z"/>
	<path class="st1" d="M66.91,24.88l3.16,5.68h-2.22l-2.62-4.72c-0.57,0.19-1.18,0.28-1.82,0.28c-1.54,0-2.85-0.54-3.93-1.62
		c-1.08-1.08-1.62-2.39-1.62-3.93c0-1.54,0.54-2.85,1.62-3.93c1.08-1.08,2.39-1.62,3.93-1.62c1.54,0,2.85,0.54,3.93,1.62
		c1.08,1.08,1.62,2.39,1.62,3.93c0,1.54-0.54,2.85-1.62,3.92C67.21,24.62,67.06,24.75,66.91,24.88z M64.12,23.82l-1.82-3.26h2.22
		l1.29,2.33c0.63-0.65,0.94-1.42,0.94-2.33c0-0.93-0.32-1.71-0.97-2.36c-0.65-0.65-1.44-0.97-2.36-0.97c-0.93,0-1.71,0.32-2.36,0.97
		c-0.65,0.65-0.97,1.44-0.97,2.36c0,0.93,0.32,1.71,0.97,2.36c0.65,0.65,1.44,0.97,2.36,0.97C63.65,23.89,63.89,23.87,64.12,23.82z"
		/>
	<path class="st1" d="M70.13,20.56V15h2.22v5.56c0,0.93,0.32,1.71,0.97,2.36c0.65,0.65,1.44,0.97,2.36,0.97
		c0.93,0,1.71-0.32,2.36-0.97c0.65-0.65,0.97-1.44,0.97-2.36V9.44h2.22v11.11c0,1.54-0.54,2.85-1.62,3.93
		c-1.08,1.08-2.39,1.62-3.93,1.62c-1.54,0-2.85-0.54-3.93-1.62C70.67,23.41,70.13,22.1,70.13,20.56z"/>
	<path class="st1" d="M85.41,26.11h-2.22V15h2.22V26.11z"/>
	<path class="st1" d="M95.66,26.11h-7.78V15h7.78c1.54,0,2.85,0.54,3.93,1.62c1.08,1.08,1.62,2.39,1.62,3.93
		c0,1.54-0.54,2.85-1.62,3.93C98.51,25.57,97.19,26.11,95.66,26.11z M90.1,23.89h5.56c0.93,0,1.71-0.32,2.36-0.97
		c0.65-0.65,0.97-1.44,0.97-2.36c0-0.93-0.32-1.71-0.97-2.36c-0.65-0.65-1.44-0.97-2.36-0.97H90.1V23.89z"/>
	<path class="st1" d="M114.08,26.11h-13.34v-2.22h13.34c0.31,0,0.58-0.11,0.79-0.32c0.21-0.21,0.32-0.48,0.32-0.79
		c0-0.31-0.11-0.58-0.32-0.79c-0.21-0.21-0.48-0.32-0.79-0.32h-4.45c-0.93,0-1.71-0.32-2.36-0.97c-0.65-0.65-0.97-1.44-0.97-2.36
		c0-0.93,0.32-1.71,0.97-2.36c0.65-0.65,1.43-0.97,2.36-0.97h6.67v2.22h-6.67c-0.31,0-0.58,0.11-0.79,0.32
		c-0.21,0.21-0.32,0.48-0.32,0.79c0,0.31,0.11,0.58,0.32,0.79c0.21,0.21,0.48,0.32,0.79,0.32h4.45c0.93,0,1.71,0.32,2.36,0.97
		c0.65,0.65,0.97,1.44,0.97,2.36c0,0.93-0.32,1.71-0.97,2.36C115.79,25.79,115.01,26.11,114.08,26.11z"/>
	<path class="st1" d="M125.73,19.67l-3.33,7L116.84,15h2.5l3.06,6.39l2.08-4.36l1.25-2.59l1.25,2.59l2.08,4.36l3.06-6.39h2.5
		l-5.56,11.67L125.73,19.67z"/>
	<path class="st1" d="M131.9,26.11l5.56-11.67l5.56,11.67h-2.5l-3.06-6.39l-3.06,6.39H131.9z"/>
	<path class="st1" d="M145.9,30.56h-2.22V15h7.78c0.93,0,1.71,0.32,2.36,0.97c0.65,0.65,0.97,1.44,0.97,2.36
		c0,0.93-0.32,1.71-0.97,2.36c-0.65,0.65-1.44,0.97-2.36,0.97h-2.78v-2.22h2.78c0.31,0,0.58-0.11,0.79-0.32
		c0.21-0.21,0.32-0.48,0.32-0.79c0-0.31-0.11-0.58-0.32-0.79c-0.21-0.21-0.48-0.32-0.79-0.32h-5.56V30.56z"/>
</g>
<path class="st2" d="M8.92,31.13L20.05,8.87l11.13,22.27H8.92z M24.05,26.89l-4-7.95l-4,7.95H24.05z"/>
<circle class="st3" cx="20.05" cy="20" r="18.34"/>
</svg>
